<svg xmlns="http://www.w3.org/2000/svg" viewBox="0 0 800 800">
<defs>
<linearGradient id="bg" x1="0" y1="0" x2="1" y2="1"><stop offset="0" stop-color="#fdf8f3"/><stop offset="1" stop-color="#f5e6d3"/></linearGradient>
<filter id="soft" x="-20%" y="-20%" width="140%" height="140%"><feGaussianBlur stdDeviation="18"/></filter>
</defs>
<rect width="800" height="800" fill="url(#bg)"/>
<ellipse cx="400" cy="640" rx="210" ry="26" fill="#000" opacity=".12" filter="url(#soft)"/>

<path d="M280 210h240l30 390c2 24-16 40-40 40H290c-24 0-42-16-40-40z" fill="#7C4A2D"/>
<path d="M280 210h240l6 50H274z" fill="#000" opacity=".15"/>
<path d="M300 200h200v24H300z" fill="#7C4A2D"/><path d="M300 200h200" stroke="#000" stroke-opacity=".2" stroke-width="4" stroke-dasharray="10 8"/>
<rect x="300" y="330" width="200" height="190" rx="18" fill="#f5e6d3"/>
<text x="400" y="392" text-anchor="middle" font-family="Georgia, serif" font-size="34" font-weight="700" fill="#3b2418">Huila</text>
<text x="400" y="430" text-anchor="middle" font-family="Arial, sans-serif" font-size="18" letter-spacing="4" fill="#3b2418" opacity=".7">CAFÉ DE ORIGEN</text>
<text x="400" y="488" text-anchor="middle" font-family="Arial, sans-serif" font-size="20" fill="#3b2418" opacity=".8">Grano · 500 g</text>
<g transform="translate(180 590) rotate(-20)"><ellipse rx="26" ry="18" fill="#5b3a29"/><path d="M-20 0c12-6 28-6 40 0" stroke="#2d1b12" stroke-width="4" fill="none"/></g><g transform="translate(610 600) rotate(30)"><ellipse rx="26" ry="18" fill="#5b3a29"/><path d="M-20 0c12-6 28-6 40 0" stroke="#2d1b12" stroke-width="4" fill="none"/></g><g transform="translate(640 540) rotate(70)"><ellipse rx="26" ry="18" fill="#5b3a29"/><path d="M-20 0c12-6 28-6 40 0" stroke="#2d1b12" stroke-width="4" fill="none"/></g><g transform="translate(200 540) rotate(10)"><ellipse rx="26" ry="18" fill="#5b3a29"/><path d="M-20 0c12-6 28-6 40 0" stroke="#2d1b12" stroke-width="4" fill="none"/></g>
</svg>
